<svg aria-hidden="true" style="position: absolute; width: 0; height: 0; overflow: hidden;" version="1.1" xmlns="http://www.w3.org/2000/svg" xmlns:xlink="http://www.w3.org/1999/xlink">
<defs>
<symbol id="icon-heart-svgrepo-com-2" viewBox="0 0 32 32">
<path fill="none" stroke="#58595b" style="stroke: var(--color1, #58595b)" stroke-linejoin="round" stroke-linecap="round" stroke-miterlimit="4" stroke-width="1.3333" d="M16 5.254c-0.031-0.034-0.061-0.065-0.092-0.095l-0-0c-1.543-1.549-3.678-2.507-6.037-2.507-4.707 0-8.523 3.816-8.523 8.523 0 2.348 0.95 4.474 2.486 6.016l-0-0c0.033 0.033 0.067 0.067 0.105 0.1v0l12.061 12.043 12.075-12.031-0.014-0.014c0.037-0.031 0.071-0.065 0.105-0.1 1.542-1.542 2.496-3.673 2.496-6.026 0-4.707-3.816-8.523-8.523-8.523-2.364 0-4.503 0.962-6.047 2.517l-0 0c-0.031 0.032-0.061 0.063-0.092 0.097z"></path>
</symbol>
</defs>
</svg>
